<?xml version="1.0" encoding="UTF-8"?>
<svg id="Layer_1" data-name="Layer 1" xmlns="http://www.w3.org/2000/svg" viewBox="0 0 609.72 204.52">
  <defs>
    <style>
      .cls-1 {
        fill: #fff;
      }
    </style>
  </defs>
  <g>
    <g>
      <g>
        <path class="cls-1" d="m238.93,117.64h25.87c10.1,0,17.38,6.25,17.38,15.35,0,3.77-2.07,9.56-7.53,11.63,6.25,2.36,9.44,7.7,9.44,13.61,0,9.19-7.08,15.6-17.47,15.6h-27.68v-56.2Zm11.18,9.6v13.74h13.2c4.59,0,7.33-2.9,7.33-6.75,0-4.43-3.31-6.99-7.74-6.99h-12.79Zm0,22.56v14.49h14.69c4.47,0,7.41-2.86,7.41-6.91,0-4.64-2.9-7.57-7.41-7.57h-14.69Z"/>
        <path class="cls-1" d="m290.93,162.46c0-7.49,6.87-12.71,17.42-12.71,2.74,0,5.8.45,8.36,1.37v-.91c0-4.38-3.56-7.57-8.61-7.57-4.59,0-7.91,2.23-10.51,5.01l-6.08-6.08c2.69-3.48,8.57-8.28,16.93-8.28,11.63,0,18.87,6.17,18.87,16.1v24.46h-10.1v-4.43c-2.15,3.23-6.25,5.26-11.26,5.26-9.02,0-15.02-4.84-15.02-12.21Zm10.06-.58c0,2.98,2.57,4.88,6.62,4.88,5.09,0,9.11-3.39,9.11-8.4-1.95-.87-4.47-1.53-7.61-1.53-4.85,0-8.12,2.03-8.12,5.05Z"/>
        <path class="cls-1" d="m337.14,173.85v-39.73h10.1l.21,4.59c2.07-2.77,6.33-5.42,12.25-5.42,9.19,0,15.69,6.04,15.69,15.6v24.96h-10.6v-22.23c0-5.5-3.56-8.48-8.24-8.48s-8.81,2.98-8.81,8.48v22.23h-10.6Z"/>
      </g>
      <path class="cls-1" d="m433.29,126.17c-.49-.34-1.12-.37-1.29-.37h-30.52c-1.46,0-2.66,1.2-2.66,2.67s1.2,2.66,2.66,2.66l7.94-.43c.69,1.43.98,2.83,1.08,4.07h-8.43c-1.33,0-2.4,1.09-2.4,2.42,0,.25.05.49.12.72.31.97,1.2,1.69,2.28,1.69l7.98-.46c-.02.07-.04.12-.04.12-1.5,5.52-10.54,5.25-10.54,5.25h-6.03v-26.87h-9.9v56.23h9.9v-19.94h3.53c.16,0,.2.03.29.16,2.59,3.88,5.19,7.74,7.79,11.62l5.52,8.16h12.42l-12.22-17.64c-.8-1.16-1.59-2.3-2.37-3.46l.18-.06c.22-.06.45-.14.67-.22,2.48-.88,4.54-2.06,6.21-3.62,2.73-2.53,4.35-5.78,4.94-9.91.02-.17.02-.36.05-.51l8.26-.56c.89-.06,1.23-.47,1.46-.84.27-.57.14-1.05.11-1.18-.22-.7-.8-1.06-1.75-1.09h-7.92c-.03-.7-.07-1.43-.16-2.16-.09-.85-.25-1.69-.44-2.51,2.77-.17,5.41-.32,7.53-.45l4.59-.26c.38-.02,1.07-.17,1.53-.77.2-.3.31-.66.31-1.01,0-.56-.22-1.06-.69-1.43Z"/>
    </g>
    <g>
      <path class="cls-1" d="m238.93,86.78V30.68h24.55c12.2,0,20.09,7.48,20.09,18.52s-7.9,18.31-20.09,18.31h-13.35v19.27h-11.2Zm11.2-28.94h12.65c6.16,0,9.34-3.84,9.34-8.64,0-5.09-3.18-8.85-9.34-8.85h-12.65v17.49Z"/>
      <path class="cls-1" d="m288.93,75.45c0-7.48,6.86-12.69,17.41-12.69,2.73,0,5.78.46,8.35,1.36v-.91c0-4.38-3.55-7.57-8.6-7.57-4.59,0-7.9,2.23-10.5,5l-6.08-6.08c2.69-3.47,8.56-8.27,16.91-8.27,11.62,0,18.85,6.16,18.85,16.08v24.43h-10.09v-4.42c-2.15,3.22-6.24,5.25-11.24,5.25-9.02,0-15.01-4.84-15.01-12.2Zm10.05-.58c0,2.98,2.56,4.88,6.61,4.88,5.08,0,9.09-3.39,9.09-8.39-1.94-.87-4.47-1.53-7.61-1.53-4.84,0-8.1,2.03-8.1,5.04Z"/>
      <path class="cls-1" d="m328.06,47.13h11.74l10.38,28.9,10.25-28.9h11.78l-18.73,45.11c-3.18,7.61-8.06,11.95-16.58,11.95-3.18,0-5.83-.87-7.56-1.74l1.32-8.52c1.36.58,3.22,1.03,5,1.03,4.42,0,7.56-3.1,8.81-8.1l-16.41-39.73Z"/>
      <path class="cls-1" d="m378.94,86.82v-39.69h10.09l.21,4.59c2.02-2.77,6.33-5.42,12.16-5.42s11,2.52,13.31,7.03c2.81-4.22,7.86-7.03,13.77-7.03,9.09,0,15.59,5.91,15.59,15.59v24.93h-10.62v-22.2c0-5.5-3.39-8.48-7.94-8.48s-8.72,2.85-8.72,8.23v22.45h-10.62v-22.2c0-5.5-3.43-8.48-7.9-8.48s-8.68,2.98-8.68,8.48v22.2h-10.62Z"/>
      <path class="cls-1" d="m450.93,66.94c.04-12.11,8.64-20.63,20.42-20.63,10.91,0,19.23,7.32,19.23,19.35,0,1.45-.13,2.94-.37,4.51h-28.69c.79,4.67,5.54,7.94,10.58,7.94,3.93,0,7.32-1.82,9.88-5.58l7.53,5.62c-3.72,6.2-10.67,9.55-17.65,9.55-12.73,0-20.92-9.18-20.92-20.75Zm29.77-3.89c-.54-4.42-4.17-7.81-9.22-7.81s-9.22,3.31-9.8,7.81h19.02Z"/>
      <path class="cls-1" d="m498.04,86.82v-39.69h10.09l.21,4.59c2.07-2.77,6.33-5.42,12.24-5.42,9.18,0,15.67,6.03,15.67,15.59v24.93h-10.58v-22.2c0-5.5-3.55-8.48-8.23-8.48s-8.81,2.98-8.81,8.48v22.2h-10.58Z"/>
      <path class="cls-1" d="m541.35,55.94v-8.81h6.74v-12.73h10.29v12.73h11.91v8.81h-11.66v16.33c0,4.13,2.32,5.95,5.87,5.95,1.98,0,4.51-.45,6.74-1.36l.99,8.81c-2.44,1.2-6.37,1.98-9.59,1.98-8.72,0-14.6-4.51-14.6-13.85v-17.86h-6.7Z"/>
      <path class="cls-1" d="m583.46,72.68c2.4,3.72,6.45,6.12,10.46,6.12,3.18,0,5.66-1.24,5.66-3.47,0-2.11-2.11-2.85-6.94-3.93-8.68-1.94-14.8-4.71-14.8-12.86,0-7.44,6.86-12.24,15.5-12.24,8.06,0,13.07,3.97,15.92,8.27l-6.78,5.58c-1.74-2.77-4.67-4.92-8.89-4.92-3.43,0-5.78,1.2-5.78,3.18,0,2.15,2.52,2.85,7.44,4.05,8.85,2.15,14.47,5,14.47,12.86s-7.19,12.32-15.67,12.32c-7.81,0-14.1-3.6-17.7-9.22l7.11-5.75Z"/>
    </g>
  </g>
  <path class="cls-1" d="m196.4,44.77c-4.16-13.17-12.17-24-23.78-32.16C171.26,11.51,156.75,0,129.45,0,93.77,0,60.8,20.38,42.27,32.77,27.28,42.8-2.65,67.18.19,94.49c1.29,12.38,9.11,22.85,27.32,23.12,14.89.22,32.39-8.55,42.3-15.06,15.55-10.22,38.23-26.87,60.45-34.82,10.94-3.91,16.59-2.31,18.37-1.88,5.61,1.28,9.74,4.46,12.2,9.48,4.31,8.74,3.33,22.51-2.46,35.14-7.91,17.21-21.5,34.17-40.44,50.46-9.61,8.27-18.55,14.68-26.49,19.03l-.71.38c-3.69,2.05-12.12,6.47-16.29,7.54-12.57,3.23-11.65-2.66-9.93-6.78,1.01-2.42,4.34-6.62,8.4-10.88,2.22-2.25,4.52-4.35,6.84-6.59,7.7-7.43,16.2-13.71,15.65-22.08-.55-8.44-8.62-13.91-17.05-13.9-8.43.02-21.67,5.76-33.72,23.51-5.2,7.65-15.24,27.85-5.09,43.8,4.08,6.38,10.84,9.6,20.12,9.58,6.49,0,14.24-1.38,22.79-4.77,25.45-10.11,52.21-29.73,66.84-42.8,23.07-20.6,37.13-40.44,45.06-64.9,3.21-9.9,7.75-29.21,2.07-47.28"/>
</svg>